<?xml version="1.0" encoding="utf-8"?>
<!-- Uploaded to: SVG Repo, www.svgrepo.com, Generator: SVG Repo Mixer Tools -->
<svg width="800px" height="800px" viewBox="0 0 1024 1024" class="icon"  version="1.1" xmlns="http://www.w3.org/2000/svg"><path d="M960 810.666667H64V512s170.666667-149.333333 448-149.333333 448 149.333333 448 149.333333v298.666667z" fill="#E89419" /><path d="M874.666667 810.666667v-64a21.333333 21.333333 0 0 1 42.666666 0v64h-42.666666zM725.333333 810.666667v-85.333334a42.666667 42.666667 0 0 1 85.333334 0v85.333334h-85.333334zM661.333333 603.413333V512a64.021333 64.021333 0 0 0-128 0v85.333333c45.781333 0.554667 88.661333 2.709333 128 6.08zM725.333333 602.517333V533.333333a42.666667 42.666667 0 0 1 85.333334 0v82.261334a1516.224 1516.224 0 0 0-85.333334-13.077334zM874.666667 629.034667V554.666667a21.333333 21.333333 0 0 1 42.666666 0v85.333333a1110.229333 1110.229333 0 0 0-42.666666-10.965333z" fill="#724D21" /><path d="M705.770667 648.874667a1638.122667 1638.122667 0 0 0-104.426667-7.381334L597.333333 640l-85.333333-234.666667c-36.458667 0-70.954667 2.304-103.573333 6.165334L320 213.333333c-156.928 42.986667-256 128-256 128v469.333334h674.133333l-32.362666-161.792z" fill="#FFB74D" /><path d="M408.426667 411.498667A879.125333 879.125333 0 0 1 512 405.333333l85.333333 234.666667 4.010667 1.493333c37.525333 1.493333 72.512 4.010667 104.426667 7.381334L738.133333 810.666667h43.498667l-1.664-8.384-32.362667-161.792-6.144-30.762667-31.232-3.285333a1594.368 1594.368 0 0 0-82.026666-6.4l-76.096-209.301334-9.856-27.093333C532.202667 363.264 522.325333 362.666667 512 362.666667c-43.818667 0-84.629333 4.010667-122.858667 10.282666l19.285334 38.549334z" fill="#C97911" /><path d="M661.333333 602.218667a1893.376 1893.376 0 0 0-33.130666-2.176l-53.696-147.669334a64.106667 64.106667 0 0 0-34.154667 30.997334l41.92 115.242666c27.626667 1.088 54.122667 2.666667 79.04 4.8v-1.194666zM756.394667 684.458667A42.581333 42.581333 0 0 0 725.333333 725.333333v21.376L738.133333 810.666667h43.498667l-1.664-8.384-23.573333-117.824z" fill="#543411" /><path d="M490.666667 597.333333v-85.333333a64.021333 64.021333 0 0 0-128 0v91.413333A1753.408 1753.408 0 0 1 490.666667 597.333333zM298.666667 602.517333V533.333333a42.666667 42.666667 0 0 0-85.333334 0v82.261334a1516.224 1516.224 0 0 1 85.333334-13.077334zM149.333333 629.034667V554.666667a21.333333 21.333333 0 0 0-42.666666 0v85.333333c11.882667-3.328 26.133333-7.04 42.666666-10.965333zM490.666667 810.666667v-85.333334a64.021333 64.021333 0 0 0-128 0v85.333334h128zM298.666667 810.666667v-85.333334a42.666667 42.666667 0 0 0-85.333334 0v85.333334h85.333334zM149.333333 810.666667v-64a21.333333 21.333333 0 0 0-42.666666 0v64h42.666666zM533.333333 810.666667v-85.333334a64.021333 64.021333 0 0 1 128 0v85.333334h-128zM149.333333 450.218667V384a21.333333 21.333333 0 0 0-42.666666 0v84.48c11.882667-5.568 26.133333-11.733333 42.666666-18.261333zM298.666667 405.994667V341.333333a42.666667 42.666667 0 0 0-85.333334 0v86.464a981.674667 981.674667 0 0 1 85.333334-21.802666z" fill="#9E6C30" /></svg>